<?xml version="1.0" standalone="no"?>
<!DOCTYPE svg PUBLIC "-//W3C//DTD SVG 20010904//EN"
 "http://www.w3.org/TR/2001/REC-SVG-20010904/DTD/svg10.dtd">
<svg version="1.0" xmlns="http://www.w3.org/2000/svg"
 width="174.000000pt" height="290.000000pt" viewBox="0 0 174.000000 290.000000"
 preserveAspectRatio="xMidYMid meet">
<metadata>
Created by potrace 1.16, written by Peter Selinger 2001-2019
</metadata>
<g transform="translate(0.000000,290.000000) scale(0.100000,-0.100000)"
fill="#000000" stroke="none">
<path d="M810 2820 c-179 -28 -337 -129 -436 -277 -76 -115 -176 -347 -209
-485 -19 -80 -19 -247 -1 -316 8 -29 26 -73 41 -98 42 -72 191 -217 258 -250
l58 -30 -45 -31 c-77 -54 -188 -244 -229 -392 -18 -66 -21 -100 -20 -261 1
-102 6 -207 11 -235 8 -39 9 -26 4 55 -12 179 -7 349 12 420 24 91 126 296
175 352 23 26 56 56 74 67 31 19 36 19 83 5 61 -19 189 -44 217 -43 12 0 -5 7
-38 14 -101 22 -260 80 -320 116 -32 19 -88 62 -126 97 -157 145 -200 355
-120 591 46 137 179 406 234 472 52 63 117 115 195 154 198 100 446 79 630
-52 75 -53 209 -190 259 -265 61 -92 83 -153 99 -273 28 -203 13 -364 -42
-482 -38 -81 -185 -227 -276 -273 -37 -19 -65 -36 -63 -38 6 -7 128 58 175 93
98 73 183 185 222 293 14 40 21 92 25 177 12 287 -88 515 -319 731 -88 81
-169 128 -259 148 -86 20 -202 26 -269 16z"/>
<path d="M573 2606 c-73 -33 -113 -185 -60 -233 49 -45 137 -35 194 22 30 30
33 39 33 90 0 66 -10 90 -48 109 -44 22 -85 26 -119 12z"/>
<path d="M1251 2044 c-55 -40 -70 -162 -26 -226 71 -105 196 -103 251 4 32 61
16 164 -32 209 -34 32 -155 40 -193 13z"/>
<path d="M503 1780 c-43 -17 -56 -77 -28 -130 17 -33 42 -44 82 -34 36 9 51
21 69 57 39 74 -38 141 -123 107z"/>
<path d="M1117 869 c3 -48 2 -130 -2 -182 l-7 -96 -22 26 c-18 21 -32 26 -68
26 -25 0 -59 -5 -75 -12 -63 -26 -98 -139 -109 -354 -4 -70 -10 -127 -14 -127
-16 0 -30 122 -31 264 0 83 -3 159 -7 168 -4 10 -5 -71 -4 -179 4 -191 16
-271 40 -266 6 1 13 -10 17 -26 7 -33 -16 -28 259 -53 39 -4 57 23 33 50 -17
19 -24 62 -9 62 5 0 19 -11 32 -25 15 -16 33 -24 50 -23 17 1 41 -10 68 -32
23 -18 44 -31 47 -29 2 3 -17 22 -43 42 -35 26 -54 35 -71 30 -31 -8 -85 47
-77 79 4 15 1 13 -9 -7 -19 -40 -19 -74 1 -96 25 -28 11 -35 -68 -32 -129 5
-188 14 -197 32 -9 17 12 362 24 402 27 88 62 119 138 119 53 0 64 -11 106
-100 30 -62 44 -72 19 -13 -7 18 -11 88 -10 193 1 91 -2 183 -7 205 -7 30 -8
18 -4 -46z"/>
</g>
</svg>
